<?xml version="1.0" encoding="UTF-8" standalone="no"?>
<!DOCTYPE svg PUBLIC "-//W3C//DTD SVG 1.1//EN" "http://www.w3.org/Graphics/SVG/1.1/DTD/svg11.dtd">
<svg width="100%" height="100%" viewBox="0 0 259 125" version="1.1" xmlns="http://www.w3.org/2000/svg" xmlns:xlink="http://www.w3.org/1999/xlink" xml:space="preserve" xmlns:serif="http://www.serif.com/" style="fill-rule:evenodd;clip-rule:evenodd;stroke-linejoin:round;stroke-miterlimit:2;">
    <g transform="matrix(1.19392,0,0,1.19392,0,-0.0644729)">
        <path d="M0,20.417L0,84.874L63.376,84.874L63.376,68.553L18.108,68.553L18.108,51.041L57.419,51.041L57.419,34.721L18.108,34.721L18.108,20.474C12.176,20.318 6.135,20.302 0,20.417Z" style="fill:rgb(21,126,194);fill-rule:nonzero;"/>
        <path d="M71.477,25.667C71.477,29.797 72.131,33.253 73.442,36.031C74.752,38.812 76.599,41.135 78.982,43C81.363,44.867 84.262,46.436 87.678,47.706C91.091,48.977 94.903,50.129 99.113,51.16C102.608,52.035 105.447,52.869 107.631,53.662C109.815,54.456 111.522,55.251 112.754,56.045C113.985,56.84 114.819,57.694 115.256,58.606C115.691,59.52 115.911,60.572 115.911,61.762L115.911,62.001C115.911,64.464 114.858,66.39 112.754,67.779C110.649,69.17 107.691,69.863 103.879,69.863C99.113,69.863 94.725,68.952 90.715,67.123C86.704,65.298 82.793,62.835 78.982,59.738L68.141,72.722C73.144,77.249 78.702,80.605 84.818,82.789C90.933,84.972 97.166,86.065 103.522,86.065C108.048,86.065 112.171,85.488 115.893,84.337C119.612,83.187 122.813,81.519 125.498,79.334C128.179,77.151 130.27,74.45 131.77,71.233C133.268,68.017 134.018,64.345 134.018,60.214L134.018,59.976C134.018,56.324 133.442,53.186 132.291,50.565C131.139,47.944 129.432,45.662 127.169,43.715C124.906,41.77 122.125,40.102 118.83,38.712C115.534,37.323 111.781,36.072 107.573,34.959C103.999,34.006 101.039,33.173 98.696,32.458C96.354,31.743 94.507,30.989 93.157,30.194C92.758,29.96 92.4,29.716 92.073,29.463C85.414,28.001 78.547,26.677 71.477,25.519L71.477,25.667Z" style="fill:rgb(21,126,194);fill-rule:nonzero;"/>
        <path d="M89.583,23.761C89.583,21.697 90.477,19.969 92.264,18.579C94.051,17.191 96.732,16.494 100.305,16.494C103.879,16.494 107.454,17.23 111.027,18.698C114.601,20.169 118.253,22.174 121.987,24.714L131.517,10.896C127.228,7.482 122.523,4.861 117.4,3.033C112.278,1.207 106.659,0.293 100.544,0.293C96.254,0.293 92.329,0.888 88.771,2.08C85.209,3.271 82.148,4.98 79.582,7.202C77.018,9.427 75.025,12.068 73.606,15.124C72.683,17.111 72.066,19.259 71.743,21.564C77.488,22.239 83.45,23.031 89.583,23.962L89.583,23.761Z" style="fill:rgb(29,180,233);fill-rule:nonzero;"/>
        <path d="M161.418,32.874C162.609,29.738 164.277,26.978 166.421,24.594C168.566,22.212 171.127,20.347 174.105,18.996C177.084,17.647 180.318,16.971 183.814,16.971C188.023,16.971 191.814,17.804 195.191,19.472C198.565,21.14 201.88,23.445 205.137,26.382L216.812,12.921C214.906,11.014 212.84,9.268 210.618,7.679C208.393,6.091 205.971,4.741 203.351,3.629C200.73,2.517 197.811,1.644 194.595,1.008C191.378,0.373 187.823,0.054 183.933,0.054C177.5,0.054 171.622,1.186 166.302,3.45C160.981,5.713 156.415,8.811 152.602,12.742C148.79,16.673 145.812,21.241 143.668,26.441C142.577,29.088 141.766,31.833 141.231,34.675C147.38,36.327 153.57,38.14 159.761,40.126C159.995,37.592 160.544,35.175 161.418,32.874Z" style="fill:rgb(29,180,233);fill-rule:nonzero;"/>
        <path d="M183.814,69.387C180.24,69.387 176.963,68.693 173.986,67.302C171.007,65.913 168.464,64.026 166.362,61.643C164.256,59.261 162.609,56.482 161.418,53.305C161.185,52.684 160.982,52.053 160.794,51.418C154.404,48.691 147.621,46.004 140.452,43.418C140.452,49.374 141.524,54.972 143.668,60.214C145.812,65.455 148.79,70.003 152.602,73.854C156.415,77.707 160.941,80.745 166.182,82.968C171.424,85.19 177.101,86.303 183.218,86.303C187.268,86.303 190.92,85.965 194.178,85.29C197.433,84.616 200.432,83.622 203.172,82.312C205.912,81.002 208.432,79.435 210.736,77.607C210.774,77.577 210.81,77.545 210.847,77.515C206.033,74.473 200.425,71.121 194.059,67.609C191.137,68.788 187.728,69.387 183.814,69.387Z" style="fill:rgb(21,126,194);fill-rule:nonzero;"/>
        <path d="M0.298,1.484L0.298,17.804L63.077,17.804L63.077,1.484L0.298,1.484Z" style="fill:rgb(29,180,233);fill-rule:nonzero;"/>
        <path d="M1.843,90.012L11.783,90.012L11.783,91.426L3.394,91.426L3.394,96.122L10.9,96.122L10.9,97.536L3.394,97.536L3.394,102.35L11.883,102.35L11.883,103.764L1.843,103.764L1.843,90.012Z" style="fill:rgb(21,126,194);fill-rule:nonzero;"/>
        <path d="M19.092,103.961C18.358,103.961 17.618,103.827 16.871,103.558C16.126,103.29 15.464,102.927 14.887,102.468L15.654,101.387C16.204,101.806 16.776,102.127 17.373,102.35C17.968,102.573 18.567,102.683 19.17,102.683C19.786,102.683 20.291,102.54 20.683,102.252C21.076,101.963 21.273,101.571 21.273,101.073L21.273,101.033C21.273,100.785 21.204,100.569 21.067,100.385C20.929,100.202 20.742,100.042 20.507,99.905C20.271,99.767 19.998,99.645 19.692,99.541C19.383,99.436 19.067,99.338 18.738,99.246C18.345,99.128 17.948,99 17.549,98.863C17.15,98.725 16.789,98.552 16.47,98.342C16.149,98.133 15.886,97.87 15.683,97.556C15.48,97.242 15.379,96.849 15.379,96.377L15.379,96.338C15.379,95.906 15.464,95.51 15.634,95.149C15.805,94.789 16.043,94.482 16.352,94.226C16.658,93.971 17.026,93.774 17.451,93.636C17.877,93.499 18.339,93.43 18.836,93.43C19.465,93.43 20.101,93.532 20.742,93.735C21.383,93.938 21.967,94.21 22.491,94.551L21.804,95.69C21.332,95.389 20.838,95.149 20.32,94.972C19.802,94.796 19.295,94.707 18.798,94.707C18.195,94.707 17.717,94.848 17.363,95.13C17.009,95.411 16.833,95.762 16.833,96.181L16.833,96.22C16.833,96.456 16.904,96.662 17.049,96.839C17.192,97.016 17.386,97.17 17.629,97.301C17.87,97.431 18.149,97.55 18.464,97.655C18.777,97.76 19.105,97.864 19.445,97.969C19.839,98.087 20.229,98.218 20.614,98.362C21.001,98.506 21.352,98.689 21.666,98.912C21.98,99.135 22.233,99.403 22.423,99.717C22.611,100.032 22.707,100.418 22.707,100.876L22.707,100.915C22.707,101.401 22.611,101.829 22.423,102.202C22.233,102.575 21.977,102.894 21.656,103.155C21.335,103.418 20.955,103.617 20.517,103.755C20.077,103.892 19.604,103.961 19.092,103.961Z" style="fill:rgb(21,126,194);fill-rule:nonzero;"/>
        <path d="M29.662,103.961C28.929,103.961 28.189,103.827 27.442,103.558C26.696,103.29 26.034,102.927 25.457,102.468L26.225,101.387C26.775,101.806 27.347,102.127 27.943,102.35C28.538,102.573 29.138,102.683 29.74,102.683C30.357,102.683 30.861,102.54 31.253,102.252C31.647,101.963 31.843,101.571 31.843,101.073L31.843,101.033C31.843,100.785 31.775,100.569 31.637,100.385C31.499,100.202 31.313,100.042 31.077,99.905C30.841,99.767 30.569,99.645 30.262,99.541C29.953,99.436 29.637,99.338 29.309,99.246C28.916,99.128 28.52,99 28.119,98.863C27.72,98.725 27.36,98.552 27.04,98.342C26.719,98.133 26.456,97.87 26.254,97.556C26.051,97.242 25.949,96.849 25.949,96.377L25.949,96.338C25.949,95.906 26.034,95.51 26.204,95.149C26.375,94.789 26.613,94.482 26.922,94.226C27.229,93.971 27.597,93.774 28.022,93.636C28.447,93.499 28.909,93.43 29.406,93.43C30.035,93.43 30.671,93.532 31.313,93.735C31.953,93.938 32.537,94.21 33.062,94.551L32.374,95.69C31.902,95.389 31.408,95.149 30.891,94.972C30.372,94.796 29.865,94.707 29.368,94.707C28.766,94.707 28.287,94.848 27.934,95.13C27.579,95.411 27.403,95.762 27.403,96.181L27.403,96.22C27.403,96.456 27.475,96.662 27.619,96.839C27.763,97.016 27.956,97.17 28.199,97.301C28.441,97.431 28.719,97.55 29.034,97.655C29.348,97.76 29.675,97.864 30.016,97.969C30.409,98.087 30.799,98.218 31.185,98.362C31.571,98.506 31.922,98.689 32.236,98.912C32.55,99.135 32.803,99.403 32.993,99.717C33.182,100.032 33.277,100.418 33.277,100.876L33.277,100.915C33.277,101.401 33.182,101.829 32.993,102.202C32.803,102.575 32.547,102.894 32.227,103.155C31.905,103.418 31.525,103.617 31.087,103.755C30.648,103.892 30.174,103.961 29.662,103.961Z" style="fill:rgb(21,126,194);fill-rule:nonzero;"/>
        <path d="M44.515,98.126C44.475,97.667 44.38,97.229 44.231,96.81C44.08,96.391 43.872,96.024 43.604,95.71C43.336,95.395 43.01,95.143 42.625,94.953C42.239,94.763 41.792,94.668 41.283,94.668C40.839,94.668 40.426,94.757 40.049,94.933C39.67,95.11 39.336,95.353 39.05,95.66C38.762,95.968 38.526,96.332 38.345,96.75C38.16,97.17 38.044,97.628 37.991,98.126L44.515,98.126ZM41.528,104C40.834,104 40.179,103.872 39.563,103.617C38.947,103.362 38.408,103.002 37.948,102.536C37.485,102.072 37.12,101.515 36.848,100.866C36.576,100.218 36.441,99.501 36.441,98.716L36.441,98.677C36.441,97.943 36.56,97.255 36.803,96.613C37.046,95.972 37.385,95.411 37.817,94.933C38.25,94.455 38.765,94.079 39.363,93.803C39.959,93.529 40.613,93.391 41.321,93.391C42.07,93.391 42.74,93.532 43.33,93.813C43.922,94.095 44.419,94.478 44.826,94.963C45.233,95.448 45.541,96.014 45.752,96.662C45.962,97.311 46.067,98.008 46.067,98.755L46.067,99.01C46.067,99.076 46.06,99.155 46.047,99.246L37.991,99.246C38.044,99.797 38.175,100.283 38.385,100.709C38.594,101.135 38.859,101.495 39.181,101.79C39.5,102.085 39.865,102.308 40.272,102.458C40.678,102.609 41.109,102.683 41.567,102.683C42.275,102.683 42.881,102.553 43.384,102.291C43.89,102.029 44.35,101.682 44.771,101.249L45.712,102.095C45.202,102.671 44.618,103.133 43.965,103.48C43.31,103.827 42.497,104 41.528,104Z" style="fill:rgb(21,126,194);fill-rule:nonzero;"/>
        <path d="M49.683,93.607L51.195,93.607L51.195,95.375C51.535,94.825 51.981,94.357 52.531,93.971C53.082,93.585 53.795,93.391 54.673,93.391C55.288,93.391 55.835,93.489 56.314,93.686C56.791,93.882 57.197,94.161 57.531,94.521C57.865,94.882 58.12,95.31 58.297,95.808C58.475,96.306 58.563,96.856 58.563,97.458L58.563,103.764L57.05,103.764L57.05,97.819C57.05,96.874 56.808,96.125 56.322,95.573C55.838,95.022 55.145,94.747 54.241,94.747C53.808,94.747 53.404,94.822 53.032,94.973C52.658,95.124 52.335,95.341 52.06,95.623C51.785,95.906 51.57,96.243 51.42,96.637C51.271,97.031 51.195,97.465 51.195,97.937L51.195,103.764L49.683,103.764L49.683,93.607Z" style="fill:rgb(21,126,194);fill-rule:nonzero;"/>
        <path d="M66.166,103.941C65.76,103.941 65.379,103.889 65.025,103.784C64.672,103.68 64.367,103.513 64.111,103.285C63.857,103.056 63.657,102.759 63.513,102.392C63.367,102.027 63.297,101.589 63.297,101.079L63.297,94.963L61.882,94.963L61.882,93.607L63.297,93.607L63.297,90.542L64.81,90.542L64.81,93.607L68.031,93.607L68.031,94.963L64.81,94.963L64.81,100.896C64.81,101.524 64.967,101.963 65.281,102.212C65.595,102.461 66.007,102.585 66.519,102.585C66.781,102.585 67.025,102.558 67.256,102.503C67.484,102.448 67.73,102.351 67.991,102.212L67.991,103.51C67.73,103.654 67.451,103.762 67.157,103.833C66.862,103.905 66.532,103.941 66.166,103.941Z" style="fill:rgb(21,126,194);fill-rule:nonzero;"/>
        <path d="M71.822,93.607L73.335,93.607L73.335,103.764L71.822,103.764L71.822,93.607ZM71.724,89.717L73.453,89.717L73.453,91.387L71.724,91.387L71.724,89.717Z" style="fill:rgb(21,126,194);fill-rule:nonzero;"/>
        <path d="M81.168,102.782C81.637,102.782 82.078,102.713 82.489,102.575C82.9,102.438 83.26,102.249 83.567,102.006C83.874,101.763 84.115,101.476 84.291,101.141C84.467,100.807 84.555,100.438 84.555,100.032L84.555,99.05C84.176,98.945 83.742,98.846 83.253,98.755C82.764,98.664 82.206,98.617 81.579,98.617C80.626,98.617 79.894,98.807 79.386,99.187C78.875,99.567 78.621,100.077 78.621,100.72L78.621,100.759C78.621,101.073 78.69,101.357 78.827,101.613C78.965,101.868 79.15,102.082 79.386,102.252C79.62,102.422 79.891,102.553 80.197,102.644C80.505,102.737 80.828,102.782 81.168,102.782ZM80.861,103.98C80.39,103.98 79.928,103.915 79.477,103.784C79.025,103.654 78.618,103.453 78.258,103.185C77.899,102.916 77.609,102.585 77.394,102.193C77.178,101.8 77.07,101.341 77.07,100.818L77.07,100.778C77.07,100.241 77.174,99.77 77.384,99.364C77.593,98.958 77.892,98.617 78.277,98.342C78.664,98.067 79.123,97.858 79.652,97.714C80.184,97.569 80.771,97.497 81.411,97.497C82.067,97.497 82.636,97.536 83.12,97.615C83.606,97.694 84.077,97.799 84.535,97.93L84.535,97.578C84.535,96.667 84.271,95.981 83.739,95.518C83.21,95.056 82.467,94.825 81.511,94.825C80.907,94.825 80.36,94.894 79.87,95.031C79.378,95.169 78.897,95.349 78.425,95.572L77.974,94.326C78.536,94.061 79.106,93.852 79.683,93.699C80.259,93.546 80.92,93.469 81.667,93.469C83.108,93.469 84.201,93.843 84.948,94.59C85.642,95.284 85.989,96.272 85.989,97.556L85.989,103.764L84.535,103.764L84.535,102.232C84.183,102.691 83.707,103.096 83.111,103.45C82.515,103.803 81.765,103.98 80.861,103.98Z" style="fill:rgb(21,126,194);fill-rule:nonzero;"/>
        <rect x="90.332" y="89.423" width="1.512" height="14.341" style="fill:rgb(21,126,194);fill-rule:nonzero;"/>
        <path d="M108.192,103.961C107.092,103.961 106.086,103.781 105.175,103.421C104.265,103.06 103.397,102.507 102.572,101.76L103.535,100.621C104.255,101.276 104.981,101.763 105.715,102.085C106.449,102.406 107.294,102.566 108.25,102.566C109.18,102.566 109.923,102.347 110.48,101.908C111.037,101.469 111.315,100.909 111.315,100.228L111.315,100.188C111.315,99.875 111.263,99.59 111.158,99.334C111.052,99.079 110.871,98.846 110.608,98.637C110.346,98.428 109.983,98.238 109.517,98.067C109.052,97.897 108.46,97.733 107.74,97.576C106.953,97.406 106.268,97.209 105.686,96.987C105.103,96.764 104.622,96.495 104.243,96.181C103.862,95.866 103.581,95.5 103.397,95.08C103.214,94.661 103.122,94.171 103.122,93.607L103.122,93.568C103.122,93.031 103.234,92.533 103.456,92.074C103.678,91.616 103.994,91.22 104.399,90.885C104.805,90.552 105.284,90.29 105.834,90.1C106.383,89.91 106.987,89.815 107.642,89.815C108.649,89.815 109.531,89.956 110.284,90.237C111.037,90.519 111.767,90.942 112.474,91.505L111.571,92.704C110.929,92.18 110.284,91.8 109.636,91.564C108.987,91.328 108.309,91.21 107.602,91.21C106.699,91.21 105.984,91.423 105.461,91.849C104.937,92.274 104.674,92.802 104.674,93.43L104.674,93.469C104.674,93.797 104.727,94.088 104.832,94.344C104.935,94.599 105.126,94.835 105.4,95.052C105.673,95.267 106.052,95.464 106.538,95.641C107.02,95.818 107.64,95.985 108.398,96.142C109.927,96.483 111.054,96.954 111.78,97.556C112.504,98.159 112.868,98.984 112.868,100.032L112.868,100.071C112.868,100.66 112.751,101.194 112.519,101.672C112.286,102.15 111.963,102.56 111.556,102.9C111.147,103.241 110.655,103.502 110.077,103.686C109.502,103.869 108.872,103.961 108.192,103.961Z" style="fill:rgb(21,126,194);fill-rule:nonzero;"/>
        <path d="M120.079,103.941C119.672,103.941 119.292,103.889 118.938,103.784C118.586,103.68 118.28,103.513 118.024,103.285C117.769,103.056 117.57,102.759 117.425,102.392C117.28,102.027 117.21,101.589 117.21,101.079L117.21,94.963L115.794,94.963L115.794,93.607L117.21,93.607L117.21,90.542L118.722,90.542L118.722,93.607L121.944,93.607L121.944,94.963L118.722,94.963L118.722,100.896C118.722,101.524 118.879,101.963 119.194,102.212C119.507,102.461 119.92,102.585 120.432,102.585C120.694,102.585 120.939,102.558 121.169,102.503C121.398,102.448 121.642,102.351 121.905,102.212L121.905,103.51C121.642,103.654 121.364,103.762 121.07,103.833C120.776,103.905 120.445,103.941 120.079,103.941Z" style="fill:rgb(21,126,194);fill-rule:nonzero;"/>
        <path d="M128.931,102.782C129.399,102.782 129.841,102.713 130.253,102.575C130.664,102.438 131.022,102.249 131.33,102.006C131.637,101.763 131.878,101.476 132.054,101.141C132.23,100.807 132.318,100.438 132.318,100.032L132.318,99.05C131.939,98.945 131.505,98.846 131.016,98.755C130.526,98.664 129.968,98.617 129.341,98.617C128.389,98.617 127.658,98.807 127.149,99.187C126.639,99.567 126.384,100.077 126.384,100.72L126.384,100.759C126.384,101.073 126.454,101.357 126.59,101.613C126.728,101.868 126.914,102.082 127.149,102.252C127.384,102.422 127.654,102.553 127.961,102.644C128.268,102.737 128.591,102.782 128.931,102.782ZM128.625,103.98C128.153,103.98 127.691,103.915 127.24,103.784C126.788,103.654 126.381,103.453 126.022,103.185C125.662,102.916 125.373,102.585 125.157,102.193C124.941,101.8 124.834,101.341 124.834,100.818L124.834,100.778C124.834,100.241 124.937,99.77 125.147,99.364C125.356,98.958 125.656,98.617 126.041,98.342C126.427,98.067 126.886,97.858 127.416,97.714C127.947,97.569 128.534,97.497 129.173,97.497C129.83,97.497 130.399,97.536 130.884,97.615C131.369,97.694 131.84,97.799 132.299,97.93L132.299,97.578C132.299,96.667 132.034,95.981 131.503,95.518C130.973,95.056 130.229,94.825 129.274,94.825C128.671,94.825 128.125,94.894 127.633,95.031C127.141,95.169 126.66,95.349 126.188,95.572L125.737,94.326C126.299,94.061 126.869,93.852 127.446,93.699C128.022,93.546 128.684,93.469 129.429,93.469C130.871,93.469 131.964,93.843 132.711,94.59C133.406,95.284 133.753,96.272 133.753,97.556L133.753,103.764L132.299,103.764L132.299,102.232C131.946,102.691 131.47,103.096 130.875,103.45C130.278,103.803 129.528,103.98 128.625,103.98Z" style="fill:rgb(21,126,194);fill-rule:nonzero;"/>
        <path d="M145.757,94.943L144.363,94.943L144.363,93.627L145.757,93.627L145.757,92.743C145.757,91.577 146.044,90.706 146.622,90.129C147.172,89.606 147.898,89.343 148.803,89.343C149.157,89.343 149.463,89.364 149.725,89.403C149.988,89.442 150.237,89.508 150.472,89.599L150.472,90.915C150.21,90.837 149.968,90.775 149.747,90.729C149.522,90.683 149.281,90.66 149.019,90.66C147.84,90.66 147.251,91.381 147.251,92.821L147.251,93.646L150.453,93.646L150.453,94.943L147.251,94.943L147.251,103.764L145.757,103.764L145.757,94.943ZM138.527,94.943L137.132,94.943L137.132,93.627L138.527,93.627L138.527,92.743C138.527,91.59 138.821,90.719 139.411,90.129C139.935,89.606 140.662,89.343 141.591,89.343C141.945,89.343 142.251,89.364 142.504,89.403C142.76,89.442 143.013,89.508 143.262,89.599L143.262,90.915C142.986,90.837 142.738,90.775 142.516,90.729C142.293,90.683 142.05,90.66 141.789,90.66C140.61,90.66 140.02,91.381 140.02,92.821L140.02,93.646L143.242,93.646L143.242,94.943L140.04,94.943L140.04,103.764L138.527,103.764L138.527,94.943Z" style="fill:rgb(21,126,194);fill-rule:nonzero;"/>
        <path d="M159.923,104C158.927,104 158.011,103.817 157.171,103.45C156.334,103.083 155.606,102.583 154.991,101.948C154.376,101.312 153.894,100.562 153.547,99.698C153.2,98.833 153.027,97.91 153.027,96.928L153.027,96.888C153.027,95.919 153.2,95.002 153.547,94.138C153.894,93.273 154.376,92.516 154.991,91.868C155.606,91.22 156.34,90.709 157.193,90.336C158.044,89.962 158.973,89.776 159.983,89.776C160.611,89.776 161.177,89.829 161.68,89.933C162.186,90.038 162.655,90.185 163.086,90.375C163.518,90.565 163.918,90.795 164.286,91.063C164.652,91.332 165.004,91.629 165.345,91.957L164.286,93.096C163.695,92.546 163.064,92.094 162.389,91.74C161.714,91.387 160.905,91.21 159.961,91.21C159.203,91.21 158.499,91.354 157.849,91.643C157.202,91.93 156.637,92.33 156.161,92.841C155.681,93.352 155.309,93.951 155.041,94.638C154.772,95.326 154.637,96.063 154.637,96.849L154.637,96.888C154.637,97.687 154.772,98.431 155.041,99.118C155.309,99.806 155.681,100.405 156.161,100.915C156.637,101.426 157.202,101.829 157.849,102.124C158.499,102.419 159.203,102.566 159.961,102.566C160.905,102.566 161.717,102.392 162.399,102.046C163.08,101.699 163.748,101.21 164.402,100.582L165.423,101.584C165.07,101.95 164.701,102.282 164.314,102.575C163.927,102.871 163.511,103.122 163.067,103.332C162.621,103.542 162.143,103.705 161.632,103.824C161.121,103.941 160.551,104 159.923,104Z" style="fill:rgb(21,126,194);fill-rule:nonzero;"/>
        <path d="M178.036,98.716L174.912,91.721L171.768,98.716L178.036,98.716ZM174.205,89.913L175.659,89.913L181.926,103.764L180.256,103.764L178.645,100.129L171.159,100.129L169.53,103.764L167.937,103.764L174.205,89.913Z" style="fill:rgb(21,126,194);fill-rule:nonzero;"/>
        <path d="M191.395,97.026C191.907,97.026 192.378,96.961 192.81,96.83C193.242,96.698 193.616,96.512 193.929,96.269C194.244,96.027 194.491,95.733 194.667,95.385C194.843,95.038 194.932,94.642 194.932,94.196L194.932,94.157C194.932,93.306 194.624,92.641 194.007,92.163C193.392,91.685 192.529,91.446 191.414,91.446L187.17,91.446L187.17,97.026L191.395,97.026ZM185.62,90.012L191.521,90.012C192.372,90.012 193.127,90.133 193.787,90.375C194.447,90.618 194.993,90.954 195.424,91.387C195.765,91.727 196.027,92.127 196.21,92.585C196.391,93.044 196.484,93.548 196.484,94.099L196.484,94.138C196.484,94.714 196.391,95.228 196.21,95.68C196.027,96.132 195.768,96.525 195.435,96.859C195.101,97.193 194.707,97.468 194.248,97.684C193.79,97.9 193.294,98.054 192.757,98.146L196.982,103.764L195.076,103.764L191.091,98.421L187.17,98.421L187.17,103.764L185.62,103.764L185.62,90.012Z" style="fill:rgb(21,126,194);fill-rule:nonzero;"/>
        <path d="M200.808,90.012L210.749,90.012L210.749,91.426L202.359,91.426L202.359,96.122L209.864,96.122L209.864,97.536L202.359,97.536L202.359,102.35L210.847,102.35L210.847,103.764L200.808,103.764L200.808,90.012Z" style="fill:rgb(21,126,194);fill-rule:nonzero;"/>
    </g>
</svg>
